<svg xmlns="http://www.w3.org/2000/svg" xmlns:xlink="http://www.w3.org/1999/xlink" viewBox="0 0 434.79 281.41"><defs><style>.cls-1{fill:none;}.cls-2{fill:url(#名称未設定グラデーション_864);}.cls-3{fill:url(#名称未設定グラデーション_443);}.cls-4{fill:url(#名称未設定グラデーション_85);}.cls-5,.cls-7{stroke:#000;stroke-miterlimit:10;}.cls-5{fill:url(#新規パターンスウォッチ_2);}.cls-6{fill:url(#名称未設定グラデーション_446);}.cls-7{fill:url(#新規パターンスウォッチ_2-3);}.cls-8{fill:url(#名称未設定グラデーション_939);}</style><radialGradient id="名称未設定グラデーション_864" cx="106.88" cy="106.88" r="106.38" gradientUnits="userSpaceOnUse"><stop offset="0" stop-color="#a21000"/><stop offset="1" stop-color="red"/></radialGradient><linearGradient id="名称未設定グラデーション_443" x1="556.57" y1="309.87" x2="556.57" y2="238.23" gradientTransform="translate(-122.46 -303.31) rotate(25)" gradientUnits="userSpaceOnUse"><stop offset="0" stop-color="#8000b2"/><stop offset="1" stop-color="#e2f"/></linearGradient><linearGradient id="名称未設定グラデーション_85" x1="570.34" y1="309.53" x2="570.34" y2="286.53" gradientTransform="translate(-122.46 -303.31) rotate(25)" gradientUnits="userSpaceOnUse"><stop offset="0" stop-color="#1a1a1a"/><stop offset="1" stop-color="#333"/></linearGradient><pattern id="新規パターンスウォッチ_2" data-name="新規パターンスウォッチ 2" width="15" height="22.5" patternTransform="matrix(0.91, 0.42, -0.34, 0.73, 8.37, 6.54)" patternUnits="userSpaceOnUse" viewBox="0 0 15 22.5"><rect class="cls-1" width="15" height="22.5"/><circle cx="15" cy="22.5" r="2"/><circle cy="22.5" r="2"/><circle cx="7.5" cy="11.25" r="2"/><circle cx="15" r="2"/><circle r="2"/></pattern><linearGradient id="名称未設定グラデーション_446" x1="570.24" y1="253.79" x2="570.24" y2="230.79" gradientTransform="matrix(0.91, 0.42, 0.42, -0.91, -330.65, 143.17)" gradientUnits="userSpaceOnUse"><stop offset="0" stop-color="#333"/><stop offset="1" stop-color="#1a1a1a"/></linearGradient><pattern id="新規パターンスウォッチ_2-3" data-name="新規パターンスウォッチ 2" width="15" height="22.5" patternTransform="matrix(0.91, 0.42, 0.34, -0.73, 22.82, -24.69)" patternUnits="userSpaceOnUse" viewBox="0 0 15 22.5"><rect class="cls-1" width="15" height="22.5"/><circle cx="15" cy="22.5" r="2"/><circle cy="22.5" r="2"/><circle cx="7.5" cy="11.25" r="2"/><circle cx="15" r="2"/><circle r="2"/></pattern><radialGradient id="名称未設定グラデーション_939" cx="106.54" cy="106.82" r="51.49" gradientUnits="userSpaceOnUse"><stop offset="0" stop-color="red"/><stop offset="0.9" stop-color="#da0000"/><stop offset="1" stop-color="#400c00"/></radialGradient></defs><g id="レイヤー_2" data-name="レイヤー 2"><g id="レイヤー_1-2" data-name="レイヤー 1"><circle class="cls-2" cx="106.88" cy="106.88" r="106.38"/><path d="M106.88,1A105.88,105.88,0,1,1,1,106.88,106,106,0,0,1,106.88,1m0-1A106.88,106.88,0,1,0,213.76,106.88,106.88,106.88,0,0,0,106.88,0Z"/><path class="cls-3" d="M401.19,280.91a17.93,17.93,0,0,1-7.64-1.7L108.48,146.27a18.12,18.12,0,0,1-8.76-24.05l15-32.12a18.09,18.09,0,0,1,24.06-8.76L423.83,214.28a18.12,18.12,0,0,1,8.76,24.06l-15,32.11A18.19,18.19,0,0,1,401.19,280.91Z"/><path d="M131.11,79.14v1a17.4,17.4,0,0,1,7.43,1.66L423.62,214.73a17.61,17.61,0,0,1,8.51,23.39l-15,32.12a17.68,17.68,0,0,1-16,10.17,17.47,17.47,0,0,1-7.43-1.66L108.69,145.82a17.62,17.62,0,0,1-8.52-23.39l15-32.12a17.67,17.67,0,0,1,16-10.17v-1m0,0a18.61,18.61,0,0,0-16.87,10.75L99.27,122a18.6,18.6,0,0,0,9,24.73L393.34,279.66a18.58,18.58,0,0,0,24.72-9l15-32.11a18.62,18.62,0,0,0-9-24.73L139,80.89a18.44,18.44,0,0,0-7.85-1.75Z"/><path class="cls-4" d="M375.11,270.24l-222.95-104L180,160.94c6.84-1.31,15.11,0,22.76,3.54l145.81,68c6.8,3.17,12.29,8.18,14.91,13.6Z"/><path class="cls-5" d="M375,270.74l-222.95-104,28-5.66c6.87-1.39,15.17-.15,22.82,3.42l145.81,68c6.8,3.17,12.27,8.23,14.85,13.73Z"/><path class="cls-6" d="M404.89,206.13l-222.95-104,13.8,24.75c3.39,6.08,9.69,11.59,17.35,15.15l145.81,68c6.8,3.17,14.16,4.15,20,2.67Z"/><path class="cls-7" d="M405.2,205.72l-222.95-104,13.65,25.07c3.35,6.16,9.63,11.71,17.29,15.28L359,210.1c6.8,3.17,14.18,4.11,20.05,2.56Z"/><circle class="cls-8" cx="106.54" cy="106.82" r="51.49"/><path d="M147.07,111.76,139.42,99l-7.65,12.78h6c-.23,10-2.35,18.66-11,24.73-5.73,4-10.61,4.67-16.74,4.49v-6.55L97.17,142l3,1.77v.14l.29,0,9.6,5.68v-5.15l1.77,0a27.2,27.2,0,0,0,17-5.15c9.9-6.93,12.26-16.79,12.51-27.61Z"/></g></g></svg>