<svg xmlns="http://www.w3.org/2000/svg" xmlns:xlink="http://www.w3.org/1999/xlink" viewBox="0 0 459.03 213.76"><defs><style>.cls-1{fill:none;}.cls-2{fill:url(#名称未設定グラデーション_864);}.cls-3{fill:url(#名称未設定グラデーション_1122);}.cls-4{fill:url(#名称未設定グラデーション_85);}.cls-5,.cls-7{stroke:#000;stroke-miterlimit:10;}.cls-5{fill:url(#新規パターンスウォッチ_2);}.cls-6{fill:url(#名称未設定グラデーション_446);}.cls-7{fill:url(#新規パターンスウォッチ_2-3);}.cls-8{fill:url(#名称未設定グラデーション_939);}</style><radialGradient id="名称未設定グラデーション_864" cx="106.88" cy="106.88" r="106.38" gradientTransform="translate(195.26 -15.74) rotate(80.78)" gradientUnits="userSpaceOnUse"><stop offset="0" stop-color="#a21000"/><stop offset="1" stop-color="red"/></radialGradient><linearGradient id="名称未設定グラデーション_1122" x1="283.15" y1="143.1" x2="283.15" y2="71.45" gradientUnits="userSpaceOnUse"><stop offset="0" stop-color="#00cfd3"/><stop offset="1" stop-color="#2cf4ff"/></linearGradient><linearGradient id="名称未設定グラデーション_85" x1="296.92" y1="142.76" x2="296.92" y2="119.76" gradientUnits="userSpaceOnUse"><stop offset="0" stop-color="#1a1a1a"/><stop offset="1" stop-color="#333"/></linearGradient><pattern id="新規パターンスウォッチ_2" data-name="新規パターンスウォッチ 2" width="15" height="22.5" patternTransform="translate(-15.44 17.31) scale(1 0.81)" patternUnits="userSpaceOnUse" viewBox="0 0 15 22.5"><rect class="cls-1" width="15" height="22.5"/><circle cx="15" cy="22.5" r="2"/><circle cy="22.5" r="2"/><circle cx="7.5" cy="11.25" r="2"/><circle cx="15" r="2"/><circle r="2"/></pattern><linearGradient id="名称未設定グラデーション_446" x1="296.82" y1="-711.99" x2="296.82" y2="-734.99" gradientTransform="matrix(1, 0, 0, -1, 0, -639.92)" gradientUnits="userSpaceOnUse"><stop offset="0" stop-color="#333"/><stop offset="1" stop-color="#1a1a1a"/></linearGradient><pattern id="新規パターンスウォッチ_2-3" data-name="新規パターンスウォッチ 2" width="15" height="22.5" patternTransform="matrix(1, 0, 0, -0.81, -15.54, -17.11)" patternUnits="userSpaceOnUse" viewBox="0 0 15 22.5"><rect class="cls-1" width="15" height="22.5"/><circle cx="15" cy="22.5" r="2"/><circle cy="22.5" r="2"/><circle cx="7.5" cy="11.25" r="2"/><circle cx="15" r="2"/><circle r="2"/></pattern><radialGradient id="名称未設定グラデーション_939" cx="106.54" cy="106.82" r="51.49" gradientUnits="userSpaceOnUse"><stop offset="0" stop-color="red"/><stop offset="0.9" stop-color="#da0000"/><stop offset="1" stop-color="#400c00"/></radialGradient></defs><g id="レイヤー_2" data-name="レイヤー 2"><g id="レイヤー_1-2" data-name="レイヤー 1"><circle class="cls-2" cx="106.88" cy="106.88" r="106.38" transform="translate(-15.74 195.26) rotate(-80.78)"/><path d="M106.88,1A105.88,105.88,0,1,1,1,106.88,106,106,0,0,1,106.88,1m0-1A106.88,106.88,0,1,0,213.76,106.88,106.88,106.88,0,0,0,106.88,0Z"/><rect class="cls-3" x="107.78" y="71.45" width="350.75" height="71.64" rx="18.1"/><path d="M440.43,72A17.63,17.63,0,0,1,458,89.56V125a17.63,17.63,0,0,1-17.6,17.61H125.88A17.62,17.62,0,0,1,108.28,125V89.56A17.62,17.62,0,0,1,125.88,72H440.43m0-1H125.88a18.6,18.6,0,0,0-18.6,18.61V125a18.6,18.6,0,0,0,18.6,18.61H440.43A18.61,18.61,0,0,0,459,125V89.56A18.61,18.61,0,0,0,440.43,71Z"/><path class="cls-4" d="M419.92,142.76h-246l23-16.6c5.64-4.07,13.69-6.4,22.13-6.4H379.9c7.5,0,14.59,2.22,19.25,6Z"/><path class="cls-5" d="M420,143.26H174l23-17c5.64-4.16,13.69-6.54,22.13-6.54H380c7.51,0,14.6,2.27,19.26,6.16Z"/><path class="cls-6" d="M419.82,72.07h-246l23,16.6c5.64,4.07,13.69,6.4,22.13,6.4H379.79c7.51,0,14.6-2.22,19.26-6Z"/><path class="cls-7" d="M419.93,71.57h-246l23,17c5.64,4.16,13.68,6.54,22.13,6.54H379.9c7.51,0,14.6-2.27,19.26-6.16Z"/><circle class="cls-8" cx="106.54" cy="106.82" r="51.49"/><path d="M147.07,111.76,139.42,99l-7.65,12.78h6c-.23,10-2.35,18.66-11,24.73-5.73,4-10.61,4.67-16.74,4.49v-6.55L97.17,142l3,1.77v.14l.29,0,9.6,5.68v-5.15l1.77,0a27.2,27.2,0,0,0,17-5.15c9.9-6.93,12.26-16.79,12.51-27.61Z"/></g></g></svg>