<svg xmlns="http://www.w3.org/2000/svg" xmlns:xlink="http://www.w3.org/1999/xlink" viewBox="0 0 256 256"><defs><style>.cls-1{fill:url(#名称未設定グラデーション_109);}.cls-2{fill:#fff;}</style><linearGradient id="名称未設定グラデーション_109" x1="128" x2="128" y2="256" gradientUnits="userSpaceOnUse"><stop offset="0" stop-color="#77fd04"/><stop offset="0.1" stop-color="#6ef403"/><stop offset="0.45" stop-color="#52d802"/><stop offset="0.77" stop-color="#41c700"/><stop offset="1" stop-color="#3bc100"/></linearGradient></defs><g id="レイヤー_2" data-name="レイヤー 2"><g id="レイヤー_1-2" data-name="レイヤー 1"><rect class="cls-1" width="256" height="256" rx="45.96"/><path class="cls-2" d="M220.82,109.73c-1.31-16-8.07-29.39-18.89-40.92-11-11.73-24.5-19.55-39.71-24.52a98.69,98.69,0,0,0-21.08-4.53c-4.44-.44-8.89-.72-13.34-1.06-17.57.33-34.31,3.93-50,12C65,57.34,54.2,66.24,46,78.21A64.23,64.23,0,0,0,35.24,105c-2.52,16.6,1.31,31.76,10.77,45.55a120,120,0,0,0,19.67,21.89,333.26,333.26,0,0,0,57.05,40.38,63.27,63.27,0,0,0,8.13,3.55,5.84,5.84,0,0,0,2.73.23,2.74,2.74,0,0,0,2.62-3.09c-.11-2.12-.47-4.24-.72-6.36-.39-3.15-.83-6.29-1.15-9.45a10.45,10.45,0,0,1,.26-2.65,4.83,4.83,0,0,1,2.27-3.36,19,19,0,0,1,7.87-2.6A105.25,105.25,0,0,0,172,181.43a89.78,89.78,0,0,0,28.93-19.61c9.57-9.82,16.18-21.29,18.93-34.82A61,61,0,0,0,220.82,109.73ZM84.9,139.89H55.8l2-46.46H71.14l-1,33.08,14.74.67Zm5.41-.08-.75-46.38h14.28l.23,46.46Zm69.16.08-11.42.15-2.18-21.28-10.3,10.68-11-11.28L123.46,140l-11.88-.22L112,93.5l10.75.08,14.13,16.76,13.46-17,11.43.08ZM181.73,127l17.59,1.43-1.2,11.5-22.63-.15-7.3.07-.45-46.23,31.13-.3.15,12.18-17.22.75-.9,4.73,18.12.68.3,9.85-17.74,1.13Z"/></g></g></svg>