<svg xmlns="http://www.w3.org/2000/svg" viewBox="0 0 465 465"><defs><style>.cls-1{fill:#e6e6e6;}.cls-2{fill:#dead00;}</style></defs><g id="レイヤー_2" data-name="レイヤー 2"><g id="レイヤー_1-2" data-name="レイヤー 1"><circle class="cls-1" cx="232.5" cy="232.5" r="232.5"/><path class="cls-2" d="M232.5,0C104.09,0,0,104.09,0,232.5A232.2,232.2,0,0,0,99,422.86V302.54A49.54,49.54,0,0,1,148.54,253H315.46A49.54,49.54,0,0,1,365,302.54v121a232.2,232.2,0,0,0,100-191C465,104.09,360.91,0,232.5,0ZM232,211a86,86,0,1,1,86-86A86,86,0,0,1,232,211Z"/></g></g></svg>