<svg xmlns="http://www.w3.org/2000/svg" xmlns:xlink="http://www.w3.org/1999/xlink" viewBox="0 0 213.76 458.15"><defs><style>.cls-1{fill:none;}.cls-2{fill:url(#名称未設定グラデーション_864);}.cls-3{fill:url(#名称未設定グラデーション_1047);}.cls-4{fill:url(#名称未設定グラデーション_85);}.cls-5,.cls-7{stroke:#000;stroke-miterlimit:10;}.cls-5{fill:url(#新規パターンスウォッチ_2);}.cls-6{fill:url(#名称未設定グラデーション_446);}.cls-7{fill:url(#新規パターンスウォッチ_2-3);}.cls-8{fill:url(#名称未設定グラデーション_939);}</style><radialGradient id="名称未設定グラデーション_864" cx="106.88" cy="106.88" r="106.38" gradientUnits="userSpaceOnUse"><stop offset="0" stop-color="#a21000"/><stop offset="1" stop-color="red"/></radialGradient><linearGradient id="名称未設定グラデーション_1047" x1="42.15" y1="171.1" x2="42.15" y2="99.45" gradientTransform="translate(242.43 240.12) rotate(90)" gradientUnits="userSpaceOnUse"><stop offset="0" stop-color="#ccc"/><stop offset="1" stop-color="#f2f2f2"/></linearGradient><linearGradient id="名称未設定グラデーション_85" x1="55.92" y1="170.76" x2="55.92" y2="147.76" gradientTransform="translate(242.43 240.12) rotate(90)" gradientUnits="userSpaceOnUse"><stop offset="0" stop-color="#1a1a1a"/><stop offset="1" stop-color="#333"/></linearGradient><pattern id="新規パターンスウォッチ_2" data-name="新規パターンスウォッチ 2" width="15" height="22.5" patternTransform="translate(8.56 2.86) rotate(90) scale(1 0.81)" patternUnits="userSpaceOnUse" viewBox="0 0 15 22.5"><rect class="cls-1" width="15" height="22.5"/><circle cx="15" cy="22.5" r="2"/><circle cy="22.5" r="2"/><circle cx="7.5" cy="11.25" r="2"/><circle cx="15" r="2"/><circle r="2"/></pattern><linearGradient id="名称未設定グラデーション_446" x1="55.82" y1="29.64" x2="55.82" y2="6.64" gradientTransform="matrix(0, 1, 1, 0, 112.72, 240.12)" gradientUnits="userSpaceOnUse"><stop offset="0" stop-color="#333"/><stop offset="1" stop-color="#1a1a1a"/></linearGradient><pattern id="新規パターンスウォッチ_2-3" data-name="新規パターンスウォッチ 2" width="15" height="22.5" patternTransform="matrix(0, 1, 0.81, 0, 42.97, 2.76)" patternUnits="userSpaceOnUse" viewBox="0 0 15 22.5"><rect class="cls-1" width="15" height="22.5"/><circle cx="15" cy="22.5" r="2"/><circle cy="22.5" r="2"/><circle cx="7.5" cy="11.25" r="2"/><circle cx="15" r="2"/><circle r="2"/></pattern><radialGradient id="名称未設定グラデーション_939" cx="106.54" cy="106.82" r="51.49" gradientUnits="userSpaceOnUse"><stop offset="0" stop-color="red"/><stop offset="0.9" stop-color="#da0000"/><stop offset="1" stop-color="#400c00"/></radialGradient></defs><g id="レイヤー_2" data-name="レイヤー 2"><g id="レイヤー_1-2" data-name="レイヤー 1"><circle class="cls-2" cx="106.88" cy="106.88" r="106.38"/><path d="M106.88,1A105.88,105.88,0,1,1,1,106.88,106,106,0,0,1,106.88,1m0-1A106.88,106.88,0,1,0,213.76,106.88,106.88,106.88,0,0,0,106.88,0Z"/><rect class="cls-3" x="71.33" y="106.9" width="71.64" height="350.75" rx="18.1"/><path d="M124.87,107.4a17.61,17.61,0,0,1,17.6,17.6V439.55a17.61,17.61,0,0,1-17.6,17.6H89.43a17.62,17.62,0,0,1-17.6-17.6V125a17.62,17.62,0,0,1,17.6-17.6h35.44m0-1H89.43A18.6,18.6,0,0,0,70.83,125V439.55a18.6,18.6,0,0,0,18.6,18.6h35.44a18.6,18.6,0,0,0,18.6-18.6V125a18.6,18.6,0,0,0-18.6-18.6Z"/><path class="cls-4" d="M71.67,419V173l16.59,23c4.08,5.63,6.41,13.68,6.41,22.12V379c0,7.5-2.22,14.59-6,19.25Z"/><path class="cls-5" d="M71.17,419.15v-246l17,23c4.16,5.63,6.54,13.68,6.54,22.12V379.13c0,7.5-2.27,14.59-6.16,19.25Z"/><path class="cls-6" d="M142.36,418.94v-246l-16.6,23c-4.07,5.63-6.4,13.68-6.4,22.12V378.92c0,7.5,2.22,14.59,6,19.25Z"/><path class="cls-7" d="M142.86,419.05v-246l-17,23c-4.16,5.63-6.54,13.68-6.54,22.12V379c0,7.5,2.27,14.59,6.16,19.25Z"/><circle class="cls-8" cx="106.54" cy="106.82" r="51.49"/><path d="M147.07,111.76,139.42,99l-7.65,12.78h6c-.23,10-2.35,18.66-11,24.73-5.73,4-10.61,4.67-16.74,4.49v-6.55L97.17,142l3,1.77v.14l.29,0,9.6,5.68v-5.15l1.77,0a27.2,27.2,0,0,0,17-5.15c9.9-6.93,12.26-16.79,12.51-27.61Z"/></g></g></svg>